<svg xmlns="http://www.w3.org/2000/svg" viewBox="0 0 30 30"><path fill="#FF4612" d="M79.8 41.8c.4-.4.7-1 .7-1.6 0-.6-.2-1.2-.7-1.6L41.9.7c-.4-.4-1-.6-1.6-.6-.6 0-1.2.2-1.6.7-.9.9-.9 2.3 0 3.2l37.8 37.8c.4.4 1 .7 1.6.7.7 0 1.2-.3 1.7-.7m-77.4-12c.6 0 1.2-.2 1.6-.7L29.3 3.9c.9-.9.9-2.3 0-3.2-.4-.4-1-.7-1.6-.7-.6 0-1.2.2-1.6.7L.8 25.9c-.4.4-.7 1-.7 1.6 0 .6.2 1.2.7 1.6.4.5 1 .7 1.6.7m12.6 19c.6 0 1.2-.2 1.6-.7.4-.4.7-1 .7-1.6 0-.6-.2-1.2-.7-1.6L4 32.2c-.4-.4-1-.7-1.6-.7-.6 0-1.2.2-1.6.7-.4.4-.7 1-.7 1.6 0 .6.2 1.2.7 1.6L13.4 48c.5.5 1 .8 1.6.8m14.3-13.3c.4-.4.7-1 .7-1.6 0-.6-.2-1.2-.7-1.6-.4-.4-1-.7-1.6-.7-.6 0-1.2.2-1.6.7-.4.4-.7 1-.7 1.6 0 1.3 1 2.3 2.3 2.3.6-.1 1.2-.3 1.6-.7m-7.9 13.3c.6 0 1.2-.2 1.6-.7l6.3-6.3c.9-.9.9-2.3 0-3.2-.4-.4-1-.7-1.6-.7-.6 0-1.2.2-1.6.7l-6.3 6.3c-.4.4-.7 1-.7 1.6 0 .6.2 1.2.7 1.6.4.4.9.7 1.6.7m0-12.7c-1.3 0-2.3-1-2.3-2.3 0-1.3 1-2.3 2.3-2.3 1.3 0 2.3 1 2.3 2.3-.1 1.3-1.1 2.3-2.3 2.3z"/><path fill="#333E48" d="M78.2 29.8c1.3 0 2.3-1 2.3-2.3 0-.6-.2-1.2-.7-1.6L54.5.7c-.4-.4-1-.6-1.6-.6-1.3 0-2.3 1-2.3 2.3 0 .6.2 1.2.7 1.6l25.2 25.2c.5.4 1 .6 1.7.6zm1.6-25.9c.4-.4.7-1 .7-1.6 0-1.3-1-2.3-2.3-2.3-.6 0-1.2.2-1.6.7-.4.4-.7 1-.7 1.6 0 1.3 1 2.3 2.3 2.3.6 0 1.1-.3 1.6-.7m-5.7 42.6c0-.6-.2-1.2-.7-1.6L35.6 7c-.4-.4-1-.6-1.6-.6-1.3 0-2.3 1-2.3 2.3 0 .6.2 1.2.6 1.6l37.9 37.9c.4.4 1 .6 1.6.6 1.3 0 2.3-1.1 2.3-2.3m6.4-31.6c0-.6-.2-1.2-.6-1.6L67.2.7c-.4-.4-1-.6-1.6-.6-1.3 0-2.3 1-2.3 2.3 0 .6.2 1.2.7 1.6l12.6 12.6c.4.4 1 .7 1.6.7 1.2-.1 2.3-1.1 2.3-2.4m-19 31.6c0-.6-.2-1.2-.7-1.6L35.6 19.7c-.4-.4-1-.7-1.6-.7-1.3 0-2.3 1-2.3 2.3 0 .6.2 1.2.6 1.6l25.2 25.2c.4.4 1 .6 1.6.6 1.4.1 2.4-1 2.4-2.2m-12.6 0c0-.6-.2-1.2-.7-1.6L35.6 32.2c-.4-.4-1-.7-1.6-.7-1.3 0-2.3 1-2.3 2.3 0 .6.2 1.2.6 1.6L45 48.1c.4.4 1 .6 1.6.6 1.3.1 2.3-1 2.3-2.2m-12.6 0c0-1.3-1-2.3-2.3-2.3-1.3 0-2.3 1-2.3 2.3 0 1.3 1 2.3 2.3 2.3 1.2 0 2.3-1.1 2.3-2.3M15 29.8c.6 0 1.2-.2 1.6-.7l12.6-12.6c.9-.9.9-2.3 0-3.2-.4-.4-1-.7-1.6-.7-.6 0-1.2.2-1.6.7L13.4 25.9c-.9.9-.9 2.3 0 3.2.5.5 1 .7 1.6.7m15-2.3c0-1.3-1-2.3-2.3-2.3-1.3 0-2.3 1-2.3 2.3 0 1.3 1 2.3 2.3 2.3 1.2 0 2.3-1 2.3-2.3M4.7 2.3C4.7 1 3.7 0 2.4 0 1.2 0 .1 1 .1 2.3c0 1.3 1 2.3 2.3 2.3 1.3 0 2.3-1 2.3-2.3M2.4 17.2c.6 0 1.2-.2 1.6-.6L16.7 3.9c.9-.9.9-2.4 0-3.2-.5-.5-1-.7-1.7-.7-.6 0-1.2.2-1.6.7L.8 13.3c-.4.4-.6 1-.6 1.6-.1 1.3 1 2.3 2.2 2.3M15 36.1c-1.3 0-2.3-1-2.3-2.3 0-1.3 1-2.3 2.3-2.3 1.3 0 2.3 1 2.3 2.3 0 .6-.2 1.2-.7 1.6-.4.5-.9.7-1.6.7zM2.4 48.8c-1.3 0-2.3-1-2.3-2.3 0-1.3 1-2.3 2.3-2.3 1.3 0 2.3 1 2.3 2.3 0 .6-.2 1.2-.7 1.6-.4.4-1 .7-1.6.7m72.2 7.6v-2H80c.3 0 .5-.2.5-.5s-.2-.5-.5-.5h-5.8c-.3 0-.5.2-.5.5v2.5c0 .3.2.5.5.5s.4-.2.4-.5m-.5 6.3c-.3 0-.5-.2-.5-.5v-4.1c0-.3.2-.5.5-.5h5c.3 0 .5.2.5.5s-.2.5-.5.5h-4.5v3.2H80c.3 0 .5.2.5.5s-.2.5-.5.5h-5.9zm-6.8-8.3c.2 0 .5-.2.5-.5s-.2-.5-.5-.5h-1.6c-.3 0-.5.2-.5.5s.2.5.5.5h1.6zm1.6 8.4c-.3 0-.5-.2-.5-.5v-8.4c0-.3.2-.5.5-.5H72c.3 0 .5.2.5.5s-.2.5-.5.5h-2.6v8c-.1.2-.3.4-.5.4m-10.5-.3l3.1-7.5 1.6 3.9c.1.2.2.3.4.3.3 0 .5-.2.5-.5v-.2l-2-4.9c-.1-.2-.2-.3-.4-.3s-.4.1-.4.3l-3.5 8.5v.2c0 .3.2.5.5.5-.1 0 .1-.1.2-.3m6.6.3c-.2 0-.4-.1-.4-.3l-.8-1.9h-3.4c-.3 0-.5-.2-.5-.5s.2-.5.5-.5h3.7c.2 0 .3.1.4.3l.9 2.2v.2c.1.3-.1.5-.4.5m-11.4 0c-.2 0-.4-.1-.4-.3L49.6 54v-.2c0-.3.2-.5.5-.5.2 0 .4.1.4.3l3.1 7.5 3.1-7.5c.1-.2.2-.3.4-.3.3 0 .5.2.5.5v.2L54 62.5c0 .2-.2.3-.4.3m-9.4-8.6c-2.1 0-3.9 1.8-3.9 3.9 0 2.2 1.7 3.9 3.9 3.9 2.1 0 3.9-1.8 3.9-3.9 0-2.2-1.7-3.9-3.9-3.9m0 8.7c-2.7 0-4.8-2.2-4.8-4.8 0-2.7 2.2-4.8 4.8-4.8 2.7 0 4.8 2.2 4.8 4.8.1 2.7-2.1 4.8-4.8 4.8m-6.8-.1c-.1 0-.3-.1-.4-.2l-5.4-7.4v7.1c0 .3-.2.5-.5.5s-.5-.2-.5-.5v-8.5c0-.3.2-.5.5-.5.2 0 .3.1.4.2l5.4 7.4v-7.1c0-.3.2-.5.5-.5s.5.2.5.5v8.5c-.1.3-.3.5-.5.5m-9.1 0c-.1 0-.3-.1-.4-.2l-5.4-7.4v7.1c0 .3-.2.5-.5.5s-.5-.2-.5-.5v-8.5c0-.3.2-.5.5-.5.2 0 .3.1.4.2l5.4 7.4v-7.1c0-.3.2-.5.5-.5s.5.2.5.5v8.5c0 .3-.2.5-.5.5m-9.2 0c-.3 0-.5-.2-.5-.5v-8.5c0-.3.2-.5.5-.5s.5.2.5.5v8.5c-.1.3-.3.5-.5.5m-6.3-4.5c0 .5.3.8.7.8h1.4v1.6c-.5.4-1.2.7-2 .7-1.7 0-3.1-1.4-3.1-3.1 0-1.7 1.4-3.1 3.1-3.1.8 0 1.5.3 2.1.8.3.3.8.2 1.1-.1.3-.3.4-.8.1-1.1-.9-.8-2-1.3-3.2-1.3-2.7 0-4.9 2.1-4.9 4.8s2.2 4.8 4.9 4.8c1.3 0 2.6-.5 3.4-1.4.1-.1.2-.3.2-.5v-3c0-.4-.4-.7-.9-.7h-2.1c-.5-.1-.8.3-.8.8M1 60.7c-.3-.2-.8-.1-1.1.3-.3.4-.2.9.1 1.1.8.6 1.9.9 3.1.9 2 0 3.5-1 3.5-2.9 0-3.8-4.9-2-4.9-4.1 0-.7.5-1 1.4-1 .8 0 1.4.2 2 .6.3.2.8 0 1-.4.2-.4.1-.9-.2-1.1-.8-.5-1.9-.8-2.8-.8-1.8 0-3.2.9-3.2 2.6 0 3.8 4.9 1.9 4.9 4.1 0 .8-.7 1.4-1.7 1.4-.8.2-1.6-.3-2.1-.7"/></svg>